# AST/ASF file generated using VICON BodyLanguage
# -----------------------------------------------
:version 1.10
:name VICON
:units
  mass 1.0
  length 0.45
  angle deg
:documentation
   .ast/.asf automatically generated from VICON data using
   VICON BodyBuilder and BodyLanguage model FoxedUp or BRILLIANT.MOD
:root
   order TX TY TZ RX RY RZ
   axis XYZ
   position 0 0 0  
   orientation 0 0 0 
:bonedata
  begin
     id 1 
     name lhipjoint
     direction 0.78388 -0.462562 0.414208 
     length 3.01181 
     axis 0 0 0  XYZ
  end
  begin
     id 2 
     name lfemur
     direction 0.34202 -0.939693 0  
     length 6.04673  
     axis 0 0 20  XYZ
    dof rx ry rz
    limits (-160.0 20.0)
           (-70.0 70.0)
           (-60.0 70.0)
  end
  begin
     id 3 
     name ltibia
     direction 0.34202 -0.939693 0   
     length 7.211   
     axis 0 0 20   XYZ
    dof rx
    limits (-10.0 170.0)
  end
  begin
     id 4 
     name lfoot
     direction 0.121887 -0.334882 0.934344   
     length 2.13567   
     axis -90 7.62852e-016 20   XYZ
    dof rx rz
    limits (-45.0 90.0)
           (-70.0 20.0)
  end
  begin
     id 5 
     name ltoes
     direction 1.53555e-011 -4.2179e-011 1   
     length 1.05957   
     axis -90 7.62852e-016 20   XYZ
    dof rx
    limits (-90.0 20.0)
  end
  begin
     id 6 
     name rhipjoint
     direction -0.769387 -0.475875 0.426129   
     length 2.92756  
     axis 0 0 0  XYZ 
  end
  begin
     id 7 
     name rfemur
     direction -0.34202 -0.939693 0   
     length 6.35468   
     axis 0 0 -20   XYZ
    dof rx ry rz
    limits (-160.0 20.0)
           (-70.0 70.0)
           (-70.0 60.0)
  end
  begin
     id 8 
     name rtibia
     direction -0.34202 -0.939693 0   
     length 7.37886   
     axis 0 0 -20   XYZ
    dof rx
    limits (-10.0 170.0)
 end
 begin
     id 9 
     name rfoot
     direction -0.101763 -0.279592 0.954711   
     length 2.21478  
     axis -90 -7.62852e-016 -20   XYZ
    dof rx rz
    limits (-45.0 90.0)
           (-20.0 70.0)
  end
  begin
     id 10 
     name rtoes
     direction -1.53494e-011 -4.21851e-011 1   
     length 1.10506   
     axis -90 -7.62852e-016 -20   XYZ
    dof rx
    limits (-90.0 20.0)
  end
  begin
     id 11 
     name lowerback
     direction 0.00747405 0.999267 0.0375481   
     length 2.13259   
     axis 0 0 0   XYZ
    dof rx ry rz
    limits (-20.0 45.0)
           (-30.0 30.0)
           (-30.0 30.0)
  end
  begin
     id 12 
     name upperback
     direction 0.00661626 0.996177 0.0871029   
     length 2.10528   
     axis 0 0 0   XYZ
    dof rx ry rz
    limits (-20.0 45.0)
           (-30.0 30.0)
           (-30.0 30.0)
  end
  begin
     id 13 
     name thorax
     direction 0.00320659 0.997679 0.0680167   
     length 2.11338   
     axis 0 0 0   XYZ
    dof rx ry rz
    limits (-20.0 45.0)
           (-30.0 30.0)
           (-30.0 30.0)
  end
  begin
     id 14 
     name lowerneck
     direction 0.0374841 0.973033 0.227602   
     length 1.42765   
     axis 0 0 0   XYZ
    dof rx ry rz
    limits (-20.0 45.0)
           (-30.0 30.0)
           (-30.0 30.0)
  end
  begin
     id 15 
     name upperneck
     direction 0.00481585 0.989155 -0.146795   
     length 1.47593   
     axis 0 0 0   XYZ
    dof rx ry rz
    limits (-20.0 45.0)
           (-30.0 30.0)
           (-30.0 30.0)
  end
  begin
     id 16
     name head
     direction -0.00292522 0.997206 -0.0746423  
     length 1.48116  
     axis 0 0 0   XYZ
    dof rx ry rz
    limits (-20.0 45.0)
           (-30.0 30.0)
           (-30.0 30.0)
  end
  begin
     id 17 
     name lclavicle
     direction 0.951444 0.305606 0.0368784  
     length 3.01855  
     axis 0 0 0   XYZ
    dof ry rz
    limits (-20.0 10.0)
           (0.0 20.0)
  end
  begin
     id 18 
     name lhumerus
     direction 1 -4.48977e-011 2.61664e-027   
     length 5.52731   
     axis 180 -30 -90   XYZ
    dof rx ry rz
    limits (-60.0 90.0)
           (-90.0 90.0)
           (-90.0 90.0)
  end
  begin
     id 19
     name lradius
     direction 1 -4.48944e-011 8.22157e-027   
     length 3.11059   
     axis 180 -30 -90   XYZ
    dof rx
    limits (-10.0 170.0)
  end
  begin
     id 20
     name lwrist
     direction 1 -4.48976e-011 1.5779e-026   
     length 1.5553   
     axis -1.15221e-014 90 90   XYZ
    dof ry
    limits (-180.0 0.0)
 end
  begin
     id 21 
     name lhand
     direction 1 -4.49025e-011 3.1558e-026   
     length 0.419626   
     axis -2.01367e-014 90 90   XYZ
    dof rx rz
    limits (-90.0 90.0)
           (-45.0 45.0)
  end
  begin
     id 22 
     name lfingers
     direction 1 -4.4904e-011 6.31161e-026   
     length 0.338313   
     axis -4.02734e-014 90 90   XYZ
    dof rx
    limits (0.0 90.0)
  end
  begin
     id 23
     name lthumb
     direction 0.707107 -6.35004e-011 0.707107   
     length 0.485752   
     axis -90 45 2.85299e-015   XYZ
    dof rx rz
    limits (-45.0 45.0)
           (-45.0 45.0)
  end
  begin
     id 24 
     name rclavicle
     direction -0.968876 0.223791 0.105816   
     length 3.04177  
     axis 0 0 0   XYZ 
    dof ry rz
    limits (-10.0 20.0)
           (-20.0 0.0)
  end
  begin
     id 25 
     name rhumerus
     direction -1 -4.48962e-011 -1.01384e-027  
     length 5.25396   
     axis 180 30 90   XYZ
    dof rx ry rz
    limits (-90.0 60.0)
           (-90.0 90.0)
           (-90.0 90.0)
  end
  begin
     id 26 
     name rradius
     direction -1 -4.48955e-011 8.88542e-027   
     length 3.10567   
     axis 180 30 90   XYZ
    dof rx
    limits (-10.0 170.0)
  end
  begin
     id 27 
     name rwrist
     direction -1 -4.48994e-011 1.5779e-026   
     length 1.55283   
     axis -1.15221e-014 -90 -90   XYZ
    dof ry
    limits (-180.0 0.0)
  end
  begin
     id 28
     name rhand
     direction -1 -4.48891e-011 3.1558e-026   
     length 0.498676   
     axis -2.01367e-014 -90 -90   XYZ
    dof rx rz
    limits (-90.0 90.0)
           (-45.0 45.0)
  end
  begin
     id 29
     name rfingers
     direction -1 -4.48972e-011 6.31161e-026   
     length 0.402045   
     axis -4.02734e-014 -90 -90   XYZ
    dof rx
    limits (0.0 90.0)
  end
  begin
     id 30
     name rthumb
     direction -0.707107 -6.34849e-011 0.707107   
     length 0.577259   
     axis -90 -45 -2.85299e-015   XYZ
    dof rx rz
    limits (-45.0 45.0)
           (-45.0 45.0)
  end
:hierarchy
  begin
    root lhipjoint rhipjoint lowerback
    lhipjoint lfemur
    lfemur ltibia
    ltibia lfoot
    lfoot ltoes
    rhipjoint rfemur
    rfemur rtibia
    rtibia rfoot
    rfoot rtoes
    lowerback upperback
    upperback thorax
    thorax lowerneck lclavicle rclavicle
    lowerneck upperneck
    upperneck head
    lclavicle lhumerus
    lhumerus lradius
    lradius lwrist
    lwrist lhand lthumb
    lhand lfingers
    rclavicle rhumerus
    rhumerus rradius
    rradius rwrist
    rwrist rhand rthumb
    rhand rfingers
  end

#!OML:ASF H:\Pregnant\Project 1\Capture day 1\Session 1\femalepreg.ASF
:FULLY-SPECIFIED
:DEGREES
113
root 3.57552 9.56312 8.5026 70.0459 -2.75399 0.653503
lowerback -3.53097 -0.713829 6.21693
upperback -11.3578 -0.743654 1.75759
thorax -10.1972 -0.876865 -1.5303
lowerneck -61.9801 3.4713 3.48756
upperneck 2.36213 0.985371 1.91368
head 7.55087 0.735826 0.526033
rclavicle -2.68359e-015 2.19657e-014
rhumerus -32.1906 28.268 -92.0992
rradius 110.868
rwrist -31.2452
rhand -15.568 -26.2399
rfingers 7.12502
rthumb 10.6169 -55.9517
lclavicle -2.68359e-015 2.19657e-014
lhumerus -31.61 -23.7135 86.9251
lradius 111.24
lwrist 60.9427
lhand -48.2333 1.15066
lfingers 7.12502
lthumb -20.8925 30.0456
rfemur -166.392 -11.6695 48.5628
rtibia 102.928
rfoot -8.3208 11.2016
rtoes -0.481757
lfemur -159.625 12.4418 -35.4591
ltibia 95.7173
lfoot -5.49389 -12.2671
ltoes -16.9858
114
root 3.58537 9.58701 8.54657 70.4071 -2.83213 0.726775
lowerback -3.50907 -0.753342 6.28815
upperback -11.3514 -0.797303 1.74358
thorax -10.2104 -0.911943 -1.58112
lowerneck -62.0207 3.44281 3.48038
upperneck 2.31414 0.940377 1.96786
head 7.53342 0.721426 0.541681
rclavicle -1.70458e-014 1.50082e-014
rhumerus -32.2414 28.3146 -92.0995
rradius 110.883
rwrist -31.292
rhand -16.4621 -25.7674
rfingers 7.12502
rthumb 9.75432 -55.5215
lclavicle -1.70458e-014 1.50082e-014
lhumerus -31.3096 -23.7893 86.8908
lradius 111.159
lwrist 60.9115
lhand -48.2794 -1.87406
lfingers 7.12502
lthumb -20.9368 27.016
rfemur -166.465 -11.6679 48.75
rtibia 102.743
rfoot -8.4959 11.4305
rtoes -0.254867
lfemur -159.515 12.3299 -35.3618
ltibia 95.648
lfoot -5.88895 -11.9891
ltoes -17.0832
115
root 3.59508 9.61582 8.58987 70.72 -2.92026 0.820243
lowerback -3.46803 -0.794893 6.34941
upperback -11.3407 -0.853476 1.71642
thorax -10.2301 -0.948076 -1.64008
lowerneck -62.0671 3.38231 3.44253
upperneck 2.27968 0.875888 2.04113
head 7.52172 0.701253 0.56613
rclavicle -5.46658e-016 6.06293e-015
rhumerus -32.3155 28.3668 -92.1371
rradius 110.86
rwrist -31.3085
rhand -17.4897 -25.3265
rfingers 7.12502
rthumb 8.76279 -55.1245
lclavicle -5.46658e-016 6.06293e-015
lhumerus -31.0045 -23.8861 86.8725
lradius 111.002
lwrist 60.9431
lhand -48.5169 -3.25238
lfingers 7.12502
lthumb -21.165 25.6123
rfemur -166.469 -11.7114 48.8959
rtibia 102.529
rfoot -8.67072 11.6483
rtoes -0.0941751
lfemur -159.305 12.2108 -35.2572
ltibia 95.5364
lfoot -6.27891 -11.6995
ltoes -17.1995
116
root 3.60418 9.64825 8.63251 71.0067 -3.02926 0.916606
lowerback -3.43333 -0.836323 6.38614
upperback -11.3317 -0.91113 1.68165
thorax -10.2475 -0.983096 -1.69361
lowerneck -62.1129 3.31091 3.37693
upperneck 2.25668 0.816501 2.12838
head 7.51465 0.685883 0.601143
rclavicle 2.73329e-016 1.27471e-014
rhumerus -32.404 28.4383 -92.2116
rradius 110.788
rwrist -31.2936
rhand -18.5571 -24.9887
rfingers 7.12502
rthumb 7.73265 -54.8273
lclavicle 2.73329e-016 1.27471e-014
lhumerus -30.6947 -23.969 86.8581
lradius 110.751
lwrist 60.94
lhand -48.7973 -3.0465
lfingers 7.12502
lthumb -21.4344 25.7878
rfemur -166.42 -11.7672 48.9942
rtibia 102.287
rfoot -8.83557 11.8493
rtoes 0.0570422
lfemur -159.041 12.1017 -35.1629
ltibia 95.3961
lfoot -6.65633 -11.4095
ltoes -17.3107
117
root 3.6127 9.6842 8.6743 71.266 -3.15309 1.01457
lowerback -3.40738 -0.877217 6.40534
upperback -11.323 -0.969842 1.63895
thorax -10.2597 -1.01734 -1.74602
lowerneck -62.147 3.23998 3.30599
upperneck 2.23666 0.764545 2.20654
head 7.50844 0.672555 0.63424
rclavicle 2.41026e-015 -2.25621e-014
rhumerus -32.502 28.5237 -92.32
rradius 110.656
rwrist -31.2605
rhand -19.6057 -24.7161
rfingers 7.12502
rthumb 6.7205 -54.5894
lclavicle 2.41026e-015 -2.25621e-014
lhumerus -30.3875 -24.0569 86.8517
lradius 110.447
lwrist 60.9896
lhand -49.1241 -2.1675
lfingers 7.12502
lthumb -21.7482 26.6307
rfemur -166.317 -11.8368 49.0493
rtibia 102.018
rfoot -8.99001 12.0337
rtoes 0.20411
lfemur -158.722 12.0014 -35.0738
ltibia 95.2282
lfoot -7.02775 -11.1174
ltoes -17.4212
118
root 3.6195 9.72237 8.71462 71.531 -3.31092 1.06472
lowerback -3.4215 -0.902079 6.38555
upperback -11.3214 -1.01056 1.59648
thorax -10.2528 -1.03871 -1.7784
lowerneck -62.1624 3.1696 3.22182
upperneck 2.21535 0.723972 2.28864
head 7.5012 0.665112 0.672568
rclavicle -2.37299e-015 -2.97711e-014
rhumerus -32.5922 28.6101 -92.4466
rradius 110.471
rwrist -31.1938
rhand -20.5249 -24.5833
rfingers 7.12502
rthumb 5.83308 -54.483
lclavicle -2.37299e-015 -2.97711e-014
lhumerus -30.0895 -24.1501 86.8534
lradius 110.108
lwrist 61.1072
lhand -49.489 -0.730136
lfingers 7.12502
lthumb -22.0986 28.0271
rfemur -166.155 -11.8435 49.0494
rtibia 101.715
rfoot -9.13312 12.1836
rtoes 0.322664
lfemur -158.429 11.9627 -35.0193
ltibia 95.0492
lfoot -7.3785 -10.845
ltoes -17.5223
119
root 3.62525 9.76351 8.75372 71.7784 -3.48493 1.08904
lowerback -3.45282 -0.919271 6.34556
upperback -11.3226 -1.04255 1.55365
thorax -10.2373 -1.05372 -1.80087
lowerneck -62.1447 3.10404 3.13989
upperneck 2.18325 0.69296 2.35573
head 7.48868 0.659367 0.705491
rclavicle 2.9768e-014 -2.77677e-014
rhumerus -32.6692 28.6765 -92.583
rradius 110.235
rwrist -31.0856
rhand -21.217 -24.6112
rfingers 7.12502
rthumb 5.16485 -54.5282
lclavicle 2.9768e-014 -2.77677e-014
lhumerus -29.8067 -24.2573 86.8656
lradius 109.758
lwrist 61.3272
lhand -49.8308 0.639403
lfingers 7.12502
lthumb -22.4267 29.3574
rfemur -165.928 -11.8288 49.0089
rtibia 101.383
rfoot -9.26983 12.3084
rtoes 0.422356
lfemur -158.114 11.9613 -34.976
ltibia 94.8504
lfoot -7.71626 -10.5837
ltoes -17.6156
